<svg width="24" height="24" viewBox="0 0 24 24" fill="none" xmlns="http://www.w3.org/2000/svg">
<path d="M16.7746 4.44955C16.7746 4.33172 16.7278 4.21871 16.6444 4.13539C16.5611 4.05206 16.4481 4.00525 16.3303 4.00525H14.1088C12.9901 3.94953 11.8949 4.33883 11.0624 5.08808C10.2299 5.83733 9.7278 6.88564 9.66579 8.00394V10.4032H7.4443C7.32646 10.4032 7.21345 10.45 7.13013 10.5333C7.04681 10.6166 7 10.7296 7 10.8475V13.1578C7 13.2756 7.04681 13.3886 7.13013 13.472C7.21345 13.5553 7.32646 13.6021 7.4443 13.6021H9.66579V19.5557C9.66579 19.6735 9.7126 19.7865 9.79592 19.8699C9.87924 19.9532 9.99225 20 10.1101 20H12.7759C12.8937 20 13.0067 19.9532 13.09 19.8699C13.1734 19.7865 13.2202 19.6735 13.2202 19.5557V13.6021H15.5483C15.6471 13.6035 15.7436 13.572 15.8224 13.5124C15.9013 13.4529 15.958 13.3687 15.9837 13.2733L16.6235 10.963C16.6412 10.8973 16.6436 10.8285 16.6304 10.7618C16.6173 10.6951 16.5891 10.6323 16.5479 10.5782C16.5067 10.5241 16.4536 10.4802 16.3928 10.4499C16.332 10.4195 16.265 10.4035 16.197 10.4032H13.2202V8.00394C13.2423 7.78399 13.3456 7.58018 13.5099 7.4323C13.6742 7.28442 13.8877 7.2031 14.1088 7.2042H16.3303C16.4481 7.2042 16.5611 7.15739 16.6444 7.07407C16.7278 6.99075 16.7746 6.87774 16.7746 6.7599V4.44955Z" fill="#1877F2"/>
</svg>
